<?xml version="1.0" standalone="no"?>
<!DOCTYPE svg PUBLIC "-//W3C//DTD SVG 20010904//EN"
 "http://www.w3.org/TR/2001/REC-SVG-20010904/DTD/svg10.dtd">
<svg version="1.0" xmlns="http://www.w3.org/2000/svg"
 width="1921.000000pt" height="477.000000pt" viewBox="0 0 1921.000000 477.000000"
 preserveAspectRatio="xMidYMid meet">
<metadata>
Created by potrace 1.15, written by Peter Selinger 2001-2017
</metadata>
<g transform="translate(0.000000,477.000000) scale(0.100000,-0.100000)"
fill="#000000" stroke="none">
<path d="M8135 4744 c-79 -41 -115 -113 -115 -229 0 -120 47 -223 145 -320
145 -143 378 -244 715 -310 56 -11 181 -63 237 -98 l52 -32 -92 0 c-86 0 -100
-4 -217 -49 -75 -29 -148 -50 -183 -54 -51 -4 -61 -2 -83 19 -23 22 -26 29
-21 77 6 58 -2 64 -51 38 -84 -43 -70 -183 24 -266 21 -18 63 -45 94 -59 46
-21 69 -26 140 -25 75 0 103 6 240 52 190 63 270 77 311 57 31 -16 70 -77 89
-140 7 -22 15 -43 19 -48 4 -4 22 8 40 27 l33 34 -21 70 c-50 165 -198 320
-419 440 l-73 39 30 12 c16 7 46 29 65 49 77 76 74 197 -8 278 -65 66 -109 75
-399 85 -265 8 -336 18 -407 54 -81 42 -120 98 -120 176 0 34 7 48 46 89 l47
50 -44 0 c-24 0 -57 -7 -74 -16z"/>
<path d="M10987 4723 c48 -45 58 -74 48 -139 -12 -81 -86 -142 -209 -171 -35
-8 -165 -17 -310 -23 -289 -10 -334 -19 -402 -85 -94 -90 -83 -234 23 -304 26
-17 51 -31 57 -31 6 0 -22 -18 -62 -40 -238 -130 -375 -276 -427 -454 l-17
-58 33 -34 c32 -33 49 -36 49 -7 0 8 14 44 31 80 57 120 93 124 364 35 151
-49 180 -56 255 -56 73 0 94 4 145 27 103 48 165 126 168 212 2 54 -17 90 -58
110 -51 23 -54 21 -48 -39 5 -46 3 -56 -17 -76 -34 -34 -115 -24 -270 36 -116
44 -132 48 -217 48 -50 1 -89 4 -88 7 2 3 46 26 97 52 90 45 125 56 363 113
185 44 346 116 472 210 81 60 139 131 180 219 24 53 28 72 28 160 0 85 -3 106
-22 142 -34 63 -83 96 -151 101 l-57 4 42 -39z"/>
<path d="M9193 3010 c-51 -31 -76 -90 -81 -195 -4 -76 0 -101 20 -162 l24 -72
-22 17 c-265 207 -459 304 -714 359 -120 26 -433 26 -539 0 -452 -110 -763
-408 -871 -834 l-11 -43 -48 0 c-174 0 -344 96 -385 217 -37 108 -6 217 74
258 36 18 112 27 130 15 13 -9 12 -12 -5 -25 -44 -34 -55 -45 -61 -70 -9 -38
4 -75 38 -107 24 -22 40 -28 75 -28 49 0 98 21 111 48 47 90 -3 228 -101 279
-75 38 -227 5 -287 -64 -61 -68 -75 -109 -75 -213 0 -86 3 -101 31 -160 75
-158 231 -250 425 -250 l59 0 0 -124 c0 -68 3 -143 6 -167 l6 -44 -213 -159
c-118 -88 -219 -163 -225 -168 -8 -6 -10 20 -6 90 5 109 -4 140 -61 199 -69
73 -205 82 -323 22 -90 -45 -174 -138 -318 -349 -145 -214 -211 -296 -279
-348 -76 -58 -120 -74 -207 -75 -131 -1 -235 50 -277 134 -82 168 11 368 172
369 75 0 165 -80 165 -144 -1 -39 -23 -102 -45 -126 -16 -18 -15 -19 19 -26
25 -4 51 -1 80 10 121 46 147 185 55 289 -109 124 -347 136 -464 23 -63 -61
-88 -134 -89 -266 -1 -100 1 -109 32 -172 71 -145 215 -211 462 -211 212 0
391 44 609 148 193 93 340 188 671 435 129 97 240 179 246 183 8 5 21 -21 39
-76 122 -368 382 -600 765 -683 65 -14 128 -19 265 -19 158 0 190 3 260 23
284 81 484 266 574 529 26 78 51 218 51 289 l0 54 -49 0 -50 0 -5 -57 c-23
-223 -119 -409 -269 -519 -114 -85 -227 -126 -388 -144 -234 -26 -413 56 -465
212 -20 62 -15 112 20 167 52 82 117 98 241 60 37 -11 69 -18 72 -15 9 9 -19
109 -44 159 -71 141 -199 207 -403 207 -73 0 -100 -5 -144 -24 -108 -48 -179
-141 -215 -282 l-17 -66 -27 55 c-32 66 -72 209 -64 230 6 16 222 163 359 246
112 67 348 181 458 221 92 33 271 84 335 95 22 3 51 9 65 12 23 5 23 3 -12
-33 -47 -50 -79 -121 -85 -194 -7 -73 8 -116 55 -164 35 -37 157 -104 168 -93
3 3 -4 23 -15 45 -11 21 -25 68 -32 103 -16 87 2 131 63 159 58 26 118 25 219
-6 118 -36 196 -31 242 14 29 30 32 38 32 97 0 63 0 64 25 58 72 -16 219 -71
329 -124 68 -32 127 -59 132 -59 5 0 9 60 9 133 0 131 -1 134 -26 158 -31 29
-122 165 -157 234 -63 127 -85 267 -48 304 34 34 96 45 179 32 41 -7 75 -11
77 -9 11 10 -47 108 -83 140 -66 59 -176 77 -239 38z m-663 -191 c270 -72 548
-276 857 -629 l31 -35 -195 64 c-188 63 -194 66 -188 89 10 39 -13 90 -47 108
-17 9 -77 20 -136 25 -166 15 -222 52 -238 156 l-6 42 -37 -18 c-43 -22 -63
-45 -81 -89 -16 -42 -9 -136 13 -160 17 -18 12 -19 -145 -25 -268 -10 -566
-59 -908 -151 -91 -24 -167 -42 -169 -40 -7 7 79 110 142 171 106 102 223 167
355 197 89 20 153 20 267 0 238 -42 365 26 365 196 0 25 -6 55 -13 66 -6 12
-18 31 -25 44 -13 21 -13 21 35 15 26 -4 82 -16 123 -26z m-700 -663 c-186
-82 -372 -187 -599 -339 l-104 -69 7 57 c3 31 18 92 32 136 24 70 30 79 58 88
84 27 635 159 666 160 8 0 -19 -14 -60 -33z m-1566 -965 c32 -35 17 -62 -68
-118 -88 -59 -245 -147 -251 -141 -5 5 107 152 154 202 70 74 130 95 165 57z"/>
<path d="M9836 3015 c-52 -18 -103 -69 -132 -130 -13 -27 -22 -51 -19 -53 2
-2 36 2 77 9 84 13 145 2 180 -33 18 -18 20 -29 15 -87 -10 -131 -94 -312
-194 -422 l-53 -57 0 -131 c0 -82 4 -131 10 -131 6 0 51 20 100 45 111 56 219
99 309 124 l69 19 4 -64 c3 -56 8 -69 36 -96 44 -45 123 -49 241 -14 144 44
236 29 273 -45 22 -42 16 -108 -18 -194 -13 -32 -22 -61 -19 -63 2 -2 31 8 64
23 75 34 147 107 157 160 17 90 -25 216 -92 274 -19 17 -29 31 -23 31 34 0
260 -57 364 -92 134 -45 379 -159 512 -239 127 -76 354 -231 360 -245 8 -21
-33 -168 -64 -229 l-29 -57 -13 58 c-21 95 -65 176 -124 231 -70 63 -127 83
-242 83 -202 -1 -328 -66 -398 -207 -25 -50 -53 -150 -44 -159 3 -3 35 4 72
15 124 39 188 22 242 -61 73 -112 1 -274 -151 -344 -103 -47 -229 -52 -396
-17 -149 31 -259 92 -363 203 -107 113 -168 257 -192 453 l-6 47 -50 0 -49 0
0 -61 c0 -78 32 -235 65 -318 104 -265 335 -451 630 -506 175 -34 451 -8 626
58 297 112 507 340 599 647 15 52 25 69 33 62 69 -53 358 -266 452 -333 334
-238 597 -366 852 -415 184 -36 414 -19 528 39 168 84 230 259 170 472 -50
178 -277 255 -459 157 -126 -68 -171 -214 -93 -301 27 -29 93 -61 127 -61 47
0 51 12 25 65 -32 63 -32 111 0 156 94 127 264 95 326 -61 22 -56 17 -169 -10
-221 -48 -92 -143 -141 -276 -142 -172 0 -257 74 -505 441 -130 193 -216 287
-302 330 -115 58 -238 53 -316 -14 -59 -50 -76 -103 -70 -214 4 -66 2 -88 -6
-82 -6 5 -49 37 -96 72 -47 35 -140 106 -207 158 l-123 95 0 168 0 169 59 0
c193 0 350 92 424 248 78 165 27 355 -113 424 -51 25 -88 31 -166 29 -44 -1
-116 -53 -144 -103 -27 -48 -33 -146 -11 -185 16 -32 62 -53 113 -53 50 0 82
19 103 60 26 49 19 79 -26 123 -33 31 -39 41 -28 48 17 11 95 1 131 -17 111
-57 118 -238 13 -347 -73 -76 -200 -127 -322 -127 l-52 0 -11 43 c-104 412
-399 706 -828 824 -89 25 -113 27 -297 27 -157 1 -218 -3 -285 -17 -220 -47
-432 -146 -629 -296 -41 -31 -81 -62 -91 -69 -14 -10 -13 0 8 60 21 62 24 86
20 163 -6 105 -30 165 -81 195 -38 24 -113 26 -171 5z m1004 -170 c0 -3 -10
-19 -21 -35 -26 -35 -36 -114 -20 -163 39 -116 160 -158 356 -123 114 20 178
20 267 0 133 -30 261 -103 371 -209 59 -58 140 -155 134 -161 -1 -2 -61 12
-132 31 -369 99 -680 152 -946 162 l-167 6 19 31 c45 74 11 190 -68 234 l-42
23 -6 -38 c-17 -111 -71 -147 -236 -162 -60 -5 -119 -16 -137 -25 -34 -18 -57
-69 -47 -108 6 -23 0 -26 -188 -89 l-195 -64 51 60 c73 86 251 260 332 326
158 129 328 225 473 269 93 28 202 47 202 35z m588 -680 c208 -45 557 -136
570 -149 19 -18 59 -143 67 -210 l8 -58 -104 69 c-214 144 -419 260 -599 339
-41 19 -72 34 -67 34 4 0 60 -11 125 -25z m1601 -970 c15 -7 51 -39 78 -69 57
-62 157 -196 146 -196 -13 0 -210 114 -270 157 -67 47 -77 71 -46 105 19 22
54 23 92 3z"/>
<path d="M210 2491 c-73 -22 -144 -86 -177 -158 -27 -59 -25 -288 3 -365 70
-192 256 -370 517 -493 177 -84 317 -128 607 -190 164 -35 356 -116 460 -195
24 -18 23 -18 -30 -4 -112 29 -202 14 -413 -67 -165 -65 -217 -79 -288 -79
-53 0 -59 3 -89 37 -30 33 -32 40 -27 87 3 28 8 61 12 73 7 23 7 23 -40 9 -79
-24 -115 -72 -115 -153 0 -157 154 -308 354 -344 104 -19 214 0 437 76 207 70
267 85 352 87 53 1 60 -1 93 -33 39 -37 81 -114 109 -198 l17 -53 50 49 49 49
-22 69 c-78 254 -280 467 -609 643 l-92 50 45 20 c64 28 121 84 147 144 48
112 7 263 -90 334 -99 73 -217 94 -523 94 -337 0 -482 20 -600 82 -94 50 -146
132 -147 231 0 61 9 78 78 150 l56 57 -49 -1 c-28 0 -61 -4 -75 -8z"/>
<path d="M18941 2444 c70 -73 79 -90 79 -151 -1 -99 -53 -181 -147 -231 -118
-62 -263 -82 -600 -82 -307 0 -424 -21 -524 -95 -95 -69 -136 -223 -89 -333
26 -60 83 -116 147 -144 l45 -20 -92 -50 c-140 -75 -258 -158 -354 -249 -132
-125 -209 -243 -255 -394 l-22 -69 49 -49 50 -49 17 53 c28 84 70 161 109 198
33 32 40 34 93 33 85 -2 145 -17 352 -87 223 -76 333 -95 437 -76 200 36 354
187 354 344 0 81 -36 129 -115 153 -47 14 -47 14 -40 -9 4 -12 9 -45 12 -73 5
-47 3 -54 -27 -87 -30 -34 -36 -37 -89 -37 -71 0 -123 14 -288 79 -211 81
-301 96 -413 67 -53 -14 -54 -14 -30 4 104 79 296 160 460 195 302 65 439 108
625 199 256 125 430 294 499 484 17 47 20 80 20 192 0 152 -8 182 -71 251 -50
55 -104 81 -183 86 l-65 5 56 -58z"/>
<path d="M15816 2124 c-333 -52 -630 -203 -847 -432 -97 -102 -167 -215 -201
-322 -31 -101 -31 -256 1 -344 61 -169 196 -286 390 -338 120 -32 333 -30 466
6 187 49 335 135 453 261 116 125 172 267 158 404 -12 113 -76 211 -162 247
-43 18 -88 18 -104 -1 -19 -23 -5 -43 37 -51 55 -9 78 -27 103 -79 19 -40 22
-57 17 -116 -7 -86 -39 -159 -108 -246 -89 -111 -286 -261 -423 -322 -252
-111 -550 -59 -664 118 -36 55 -37 58 -37 151 0 110 16 160 90 285 164 278
518 541 849 632 159 43 350 56 482 32 541 -96 743 -537 449 -980 -199 -298
-694 -588 -1180 -689 -483 -100 -1002 -101 -2030 -4 -862 81 -924 86 -1120 87
-137 1 -219 -2 -260 -11 -140 -32 -277 -105 -321 -172 -21 -32 -23 -41 -13
-63 6 -13 22 -30 36 -36 54 -25 175 -3 189 33 3 9 1 30 -5 47 -10 28 -8 34 18
59 16 16 54 37 87 47 156 48 774 0 1649 -128 187 -28 441 -63 565 -79 1048
-135 1699 -95 2105 131 318 176 521 426 587 722 29 135 22 346 -17 467 -118
367 -422 619 -825 685 -115 18 -293 18 -414 -1z"/>
<path d="M2989 2075 c-176 -33 -331 -100 -463 -200 -165 -124 -274 -278 -342
-485 -26 -79 -28 -97 -28 -255 -1 -133 3 -184 16 -233 59 -212 171 -386 343
-532 236 -200 472 -296 865 -352 125 -17 803 -18 985 0 285 27 515 56 840 103
644 94 921 128 1339 164 234 21 478 17 548 -9 59 -22 102 -61 93 -84 -3 -9 -9
-29 -12 -45 -5 -25 -1 -29 42 -48 66 -29 139 -23 172 15 32 37 29 50 -19 101
-47 52 -166 115 -268 142 -109 30 -459 24 -860 -15 -1069 -103 -1177 -111
-1590 -119 -463 -8 -738 13 -1045 82 -341 76 -733 275 -959 486 -110 103 -175
188 -232 304 -209 426 42 811 571 875 99 12 197 7 320 -17 445 -86 904 -450
1025 -812 85 -256 -91 -450 -409 -452 -101 0 -193 19 -287 62 -157 70 -376
251 -454 375 -108 171 -85 360 46 380 49 7 58 15 49 44 -5 16 -15 20 -46 20
-153 0 -264 -206 -215 -399 61 -238 289 -439 594 -523 65 -19 105 -22 257 -22
176 -1 182 0 265 30 149 53 256 142 314 259 119 244 47 517 -204 766 -181 179
-438 315 -719 381 -116 26 -421 34 -532 13z"/>
</g>
</svg>
